<svg width="24" height="24" viewBox="0 0 24 24" fill="none" xmlns="http://www.w3.org/2000/svg">
<g clip-path="url(#clip0_1446_7880)">
<path d="M17.5002 0.916992C16.3742 0.934507 15.2727 1.24885 14.307 1.82826C13.3413 2.40768 12.5456 3.23166 12.0002 4.21699C11.4549 3.23166 10.6592 2.40768 9.69345 1.82826C8.72776 1.24885 7.62627 0.934507 6.50022 0.916992C4.70516 0.994983 3.01392 1.78025 1.796 3.10122C0.578077 4.4222 -0.0675328 6.17152 0.00021769 7.96699C0.00021769 14.742 10.9562 22.567 11.4222 22.899L12.0002 23.308L12.5782 22.899C13.0442 22.569 24.0002 14.742 24.0002 7.96699C24.068 6.17152 23.4224 4.4222 22.2044 3.10122C20.9865 1.78025 19.2953 0.994983 17.5002 0.916992ZM12.0002 20.846C8.74722 18.416 2.00022 12.446 2.00022 7.96699C1.93186 6.70171 2.36658 5.46072 3.20958 4.51469C4.05258 3.56866 5.23545 2.99434 6.50022 2.91699C7.76498 2.99434 8.94786 3.56866 9.79085 4.51469C10.6339 5.46072 11.0686 6.70171 11.0002 7.96699H13.0002C12.9319 6.70171 13.3666 5.46072 14.2096 4.51469C15.0526 3.56866 16.2355 2.99434 17.5002 2.91699C18.765 2.99434 19.9479 3.56866 20.7909 4.51469C21.6339 5.46072 22.0686 6.70171 22.0002 7.96699C22.0002 12.448 15.2532 18.416 12.0002 20.846Z" fill="white"/>
</g>
<defs>
<clipPath id="clip0_1446_7880">
<rect width="24" height="24" fill="white"/>
</clipPath>
</defs>
</svg>
