<svg width="16" height="16" viewBox="0 0 16 16" fill="none" xmlns="http://www.w3.org/2000/svg">
<g clip-path="url(#clip0_778_14932)">
<path d="M8.66659 0.666755C8.66659 0.489944 8.73683 0.320375 8.86185 0.19535C8.98688 0.070326 9.15645 8.80827e-05 9.33326 8.80827e-05C11.1008 0.00202915 12.7953 0.705031 14.0452 1.95485C15.295 3.20468 15.998 4.89924 15.9999 6.66676C15.9999 6.84357 15.9297 7.01314 15.8047 7.13816C15.6796 7.26318 15.5101 7.33342 15.3332 7.33342C15.1564 7.33342 14.9869 7.26318 14.8618 7.13816C14.7368 7.01314 14.6666 6.84357 14.6666 6.66676C14.665 5.25276 14.1026 3.89712 13.1027 2.89727C12.1029 1.89742 10.7473 1.33501 9.33326 1.33342C9.15645 1.33342 8.98688 1.26318 8.86185 1.13816C8.73683 1.01314 8.66659 0.843566 8.66659 0.666755ZM9.33326 4.00009C10.0405 4.00009 10.7188 4.28104 11.2189 4.78114C11.719 5.28123 11.9999 5.95951 11.9999 6.66676C11.9999 6.84357 12.0702 7.01314 12.1952 7.13816C12.3202 7.26318 12.4898 7.33342 12.6666 7.33342C12.8434 7.33342 13.013 7.26318 13.138 7.13816C13.263 7.01314 13.3333 6.84357 13.3333 6.66676C13.3322 5.60621 12.9104 4.58941 12.1605 3.8395C11.4106 3.08958 10.3938 2.66781 9.33326 2.66675C9.15645 2.66675 8.98688 2.73699 8.86185 2.86202C8.73683 2.98704 8.66659 3.15661 8.66659 3.33342C8.66659 3.51023 8.73683 3.6798 8.86185 3.80483C8.98688 3.92985 9.15645 4.00009 9.33326 4.00009ZM15.3952 11.1594C15.7816 11.5468 15.9985 12.0716 15.9985 12.6188C15.9985 13.1659 15.7816 13.6907 15.3952 14.0781L14.7886 14.7774C9.32859 20.0048 -3.95806 6.72142 1.1886 1.24409L1.95527 0.577421C2.34311 0.201873 2.86322 -0.0058792 3.40307 -0.000888689C3.94291 0.00410182 4.45909 0.221434 4.83993 0.604088C4.8606 0.624755 6.09593 2.22942 6.09593 2.22942C6.46248 2.61451 6.66653 3.12604 6.66566 3.65769C6.66479 4.18934 6.45907 4.7002 6.09126 5.08409L5.31926 6.05476C5.74649 7.09283 6.37464 8.03625 7.1676 8.83082C7.96056 9.62538 8.90271 10.2554 9.93992 10.6848L10.9166 9.90809C11.3005 9.54057 11.8113 9.33509 12.3428 9.33434C12.8743 9.3336 13.3856 9.53764 13.7706 9.90409C13.7706 9.90409 15.3746 11.1388 15.3952 11.1594ZM14.4779 12.1288C14.4779 12.1288 12.8826 10.9014 12.8619 10.8808C12.7246 10.7446 12.539 10.6682 12.3456 10.6682C12.1522 10.6682 11.9666 10.7446 11.8293 10.8808C11.8113 10.8994 10.4666 11.9708 10.4666 11.9708C10.376 12.0429 10.2681 12.0902 10.1537 12.1079C10.0392 12.1257 9.92214 12.1133 9.81392 12.0721C8.47023 11.5718 7.24975 10.7886 6.23515 9.77548C5.22055 8.76237 4.43553 7.54304 3.93326 6.20009C3.88873 6.09039 3.87421 5.97081 3.8912 5.85365C3.90819 5.73648 3.95607 5.62595 4.02993 5.53342C4.02993 5.53342 5.10126 4.18809 5.11926 4.17076C5.25544 4.03341 5.33185 3.84783 5.33185 3.65442C5.33185 3.46101 5.25544 3.27543 5.11926 3.13809C5.0986 3.11809 3.87126 1.52142 3.87126 1.52142C3.73186 1.39643 3.54993 1.32949 3.36276 1.33432C3.17559 1.33915 2.99736 1.4154 2.8646 1.54742L2.09793 2.21409C-1.6634 6.73676 9.85059 17.6121 13.8139 13.8668L14.4212 13.1668C14.5636 13.0349 14.6491 12.8529 14.6596 12.6592C14.6702 12.4655 14.605 12.2753 14.4779 12.1288Z" fill="black" fill-opacity="0.5"/>
</g>
<defs>
<clipPath id="clip0_778_14932">
<rect width="16" height="16" fill="white"/>
</clipPath>
</defs>
</svg>
