<svg width="24" height="24" viewBox="0 0 24 24" fill="none" xmlns="http://www.w3.org/2000/svg">
<g clip-path="url(#clip0_1446_7878)">
<path d="M17.5002 0.916992C16.3742 0.934507 15.2727 1.24885 14.307 1.82826C13.3413 2.40768 12.5456 3.23166 12.0002 4.21699C11.4549 3.23166 10.6592 2.40768 9.69345 1.82826C8.72776 1.24885 7.62627 0.934507 6.50022 0.916992C4.70516 0.994983 3.01392 1.78025 1.796 3.10122C0.578077 4.4222 -0.0675328 6.17152 0.00021769 7.96699C0.00021769 14.742 10.9562 22.567 11.4222 22.899L12.0002 23.308L12.5782 22.899C13.0442 22.569 24.0002 14.742 24.0002 7.96699C24.068 6.17152 23.4224 4.4222 22.2044 3.10122C20.9865 1.78025 19.2953 0.994983 17.5002 0.916992Z" fill="black" fill-opacity="0.5"/>
</g>
<defs>
<clipPath id="clip0_1446_7878">
<rect width="24" height="24" fill="white"/>
</clipPath>
</defs>
</svg>
