<svg width="32" height="33" viewBox="0 0 32 33" fill="none" xmlns="http://www.w3.org/2000/svg">
<g clip-path="url(#clip0_1243_18495)">
<path d="M31.9687 9.55262C31.8937 7.85234 31.6188 6.68341 31.2249 5.67051C30.8186 4.59535 30.1934 3.63276 29.3744 2.83256C28.5742 2.0199 27.6053 1.38843 26.5426 0.988446C25.5238 0.59457 24.361 0.319614 22.6607 0.244648C20.9477 0.163334 20.4039 0.144531 16.0593 0.144531C11.7147 0.144531 11.1709 0.163334 9.4643 0.2383C7.76402 0.313265 6.59509 0.588466 5.58244 0.982097C4.50703 1.38843 3.54444 2.01355 2.74424 2.83256C1.93158 3.63276 1.30035 4.6017 0.900128 5.66441C0.506252 6.68341 0.231296 7.84599 0.156331 9.54627C0.0750159 11.2593 0.0562134 11.8031 0.0562134 16.1477C0.0562134 20.4923 0.0750159 21.0361 0.149982 22.7427C0.224948 24.443 0.500148 25.6119 0.894023 26.6248C1.30035 27.7 1.93158 28.6626 2.74424 29.4628C3.54444 30.2754 4.51338 30.9069 5.57609 31.3069C6.59509 31.7007 7.75767 31.9757 9.4582 32.0507C11.1646 32.1259 11.7086 32.1444 16.0532 32.1444C20.3978 32.1444 20.9416 32.1259 22.6483 32.0507C24.3486 31.9757 25.5175 31.7007 26.5301 31.3069C28.6807 30.4754 30.381 28.7751 31.2124 26.6248C31.6061 25.6058 31.8813 24.443 31.9562 22.7427C32.0312 21.0361 32.05 20.4923 32.05 16.1477C32.05 11.8031 32.0437 11.2593 31.9687 9.55262ZM29.087 22.6177C29.0182 24.1805 28.7557 25.0244 28.5369 25.587C27.9992 26.9811 26.8928 28.0875 25.4987 28.6252C24.9361 28.844 24.0861 29.1065 22.5294 29.1751C20.8415 29.2503 20.3353 29.2689 16.0657 29.2689C11.7961 29.2689 11.2835 29.2503 9.60178 29.1751C8.03897 29.1065 7.19506 28.844 6.63245 28.6252C5.93871 28.3688 5.30724 27.9625 4.79469 27.4311C4.26333 26.9122 3.857 26.2871 3.60061 25.5933C3.38181 25.0307 3.11931 24.1805 3.05069 22.624C2.97548 20.9362 2.95693 20.4297 2.95693 16.1601C2.95693 11.8905 2.97548 11.3779 3.05069 9.69645C3.11931 8.13364 3.38181 7.28973 3.60061 6.72712C3.857 6.03313 4.26333 5.40191 4.80104 4.88911C5.31969 4.35776 5.94482 3.95143 6.6388 3.69527C7.20141 3.47648 8.05167 3.21398 9.60813 3.14512C11.296 3.07015 11.8024 3.05135 16.0718 3.05135C20.3478 3.05135 20.854 3.07015 22.5357 3.14512C24.0985 3.21398 24.9424 3.47648 25.505 3.69527C26.1988 3.95143 26.8302 4.35776 27.3428 4.88911C27.8741 5.40801 28.2805 6.03313 28.5369 6.72712C28.7557 7.28973 29.0182 8.13975 29.087 9.69645C29.162 11.3843 29.1808 11.8905 29.1808 16.1601C29.1808 20.4297 29.162 20.9298 29.087 22.6177Z" fill="white"/>
<path d="M16.0593 7.92725C11.5211 7.92725 7.83899 11.6091 7.83899 16.1476C7.83899 20.6861 11.5211 24.368 16.0593 24.368C20.5978 24.368 24.2797 20.6861 24.2797 16.1476C24.2797 11.6091 20.5978 7.92725 16.0593 7.92725ZM16.0593 21.4799C13.1152 21.4799 10.727 19.092 10.727 16.1476C10.727 13.2032 13.1152 10.8153 16.0593 10.8153C19.0038 10.8153 21.3917 13.2032 21.3917 16.1476C21.3917 19.092 19.0038 21.4799 16.0593 21.4799Z" fill="white"/>
<path d="M26.5241 7.60267C26.5241 8.66245 25.6648 9.52175 24.6047 9.52175C23.545 9.52175 22.6857 8.66245 22.6857 7.60267C22.6857 6.54265 23.545 5.68359 24.6047 5.68359C25.6648 5.68359 26.5241 6.54265 26.5241 7.60267Z" fill="white"/>
</g>
<defs>
<clipPath id="clip0_1243_18495">
<rect width="32" height="32" fill="white" transform="translate(0 0.144531)"/>
</clipPath>
</defs>
</svg>
