<svg width="242" height="69" viewBox="0 0 242 69" fill="none" xmlns="http://www.w3.org/2000/svg">
<path fill-rule="evenodd" clip-rule="evenodd" d="M8.90517 0.000471291H3.46348L3.46302 0C1.28634 0 0 1.30195 0 3.50503V43.8636C0 59.0857 10.3891 69 24.5379 69C38.588 69 49.373 58.9857 49.373 44.3644C49.373 26.5388 34.1359 19.4288 24.8351 19.4288H23.3508C21.4709 19.4288 20.4813 20.1295 19.8878 22.1322L18.4034 27.5404C17.7111 30.0434 18.9974 31.3453 21.0749 31.3453H23.3508C31.2664 31.3453 36.8073 37.1534 36.8073 44.3639C36.8073 51.5743 31.6624 56.8821 24.6371 56.8821C17.8103 56.8821 12.3682 52.0751 12.3682 43.3628V3.5055C12.3682 1.30242 11.0818 0.000471291 8.90517 0.000471291ZM77.8364 17.8365C63.7863 17.8365 53.0017 27.8508 53.0017 42.4717H53.0008C53.0008 60.2977 68.238 67.4077 77.5387 67.4077H79.0231C80.903 67.4077 81.8925 66.707 82.4861 64.7039L83.9704 59.2961C84.6632 56.7927 83.3769 55.4907 81.299 55.4907H79.0231C71.1079 55.4907 65.567 49.6822 65.567 42.4722C65.567 35.2622 70.7124 29.9544 77.7372 29.9544C84.5644 29.9544 90.0061 34.7609 90.0061 43.4738V63.9032C90.0061 66.1063 91.2925 67.4082 93.4691 67.4082H98.9113C101.088 67.4082 102.374 66.1063 102.374 63.9032V42.973C102.374 27.7504 91.9853 17.8365 77.8364 17.8365ZM108.3 48.9812V12.2286C108.3 10.025 109.586 8.72308 111.763 8.72308H117.205C119.382 8.72308 120.668 10.025 120.668 12.2286V19.0382H130.76C132.937 19.0382 134.223 20.3402 134.223 22.5433V27.4502C134.223 29.6533 132.937 30.9552 130.76 30.9552H120.668V47.2789C120.668 52.6866 123.141 55.4904 128.584 55.4904H131.75C134.223 55.4904 135.312 56.8928 134.619 59.3958L133.135 64.4032C132.541 66.4059 131.255 67.4075 129.276 67.4075H126.604C114.434 67.4075 108.3 60.097 108.3 48.9812ZM217.466 18.3274C229.584 18.4453 240.02 27.6877 241.744 39.8206C241.916 41.0137 242 42.2208 242 43.4044C242 57.2397 230.879 68.4909 217.214 68.4909C209.201 68.4909 201.388 64.3365 196.817 57.6499C194.651 54.4811 193.234 50.8219 192.717 47.0684C192.345 44.3192 192.442 41.5465 193.016 38.8115C192.48 39.4245 191.991 40.1601 191.553 40.8675C190.18 43.0844 189.217 45.5017 188.253 47.9198C187.608 49.5386 186.963 51.1578 186.195 52.7175C184.005 57.169 181.475 60.5264 178.456 62.9784C173.15 67.2884 166.035 69.1793 158.944 68.1608C152.152 67.1894 146.375 63.7329 142.685 58.4186C136.707 49.8316 136.768 37.3827 142.824 28.8241C147.479 22.2507 155.012 18.3227 162.974 18.3227C163.324 18.3227 163.678 18.3321 164.032 18.3463C165.318 18.4028 166.613 18.5632 167.871 18.8272C175.302 20.3598 181.736 25.3723 185.174 32.2758C187.327 29.9181 189.628 27.881 192.023 26.2117C196.556 23.0523 201.77 20.7653 207.524 19.4167C210.016 18.832 212.551 18.4594 215.057 18.3085H215.127L217.466 18.3274ZM171.822 52.3356C172.889 51.2557 173.713 50.0061 174.277 48.6245C176.308 43.6166 175.321 38.2315 171.701 34.5723C169.367 32.2098 166.273 30.9131 162.984 30.9131C161.241 30.9131 159.494 31.2714 157.803 31.9788C155.05 33.1246 152.818 35.3834 151.676 38.1749C149.64 43.1875 150.623 48.582 154.253 52.2507C156.582 54.6037 159.676 55.9052 162.96 55.9052C164.708 55.9052 166.459 55.5421 168.165 54.8254C169.53 54.2548 170.76 53.4154 171.822 52.3356ZM204.863 43.4044C204.863 50.2985 210.403 55.9052 217.214 55.9052C219.017 55.9052 220.76 55.5138 222.4 54.7499C224.03 53.986 225.451 52.8873 226.625 51.4915C228.517 49.2328 229.561 46.361 229.561 43.4044C229.561 36.6141 224.305 31.1253 217.596 30.9131C217.48 30.9083 217.363 30.9083 217.247 30.9083H217.228C212.215 30.9083 207.738 33.931 205.804 38.6088C205.483 39.3962 205.245 40.2073 205.092 41.0089C204.938 41.7729 204.863 42.5792 204.863 43.4044Z" fill="white"/>
</svg>
