<svg width="195" height="172" viewBox="0 0 195 172" fill="none" xmlns="http://www.w3.org/2000/svg">
<path opacity="0.2" d="M226.647 106.855C225.73 105.913 224.156 105.847 223.103 105.336C220.941 104.287 218.081 102.91 216.015 101.791C213.196 100.267 209.642 97.9927 206.903 96.2202C206.052 95.6733 205.101 95.2023 204.372 94.7009C200.139 91.8042 192.804 86.3754 189.184 83.0532C187.513 81.5238 182.613 76.6217 181.084 74.9505C178.274 71.8866 173.445 65.3943 170.959 61.7835C170.534 61.1657 169.977 60.0819 169.44 59.2514C168.25 57.4181 167.446 55.2861 165.896 53.6807C165.932 53.6048 165.912 53.3262 165.896 53.1743C165.8 52.283 163.411 49.2445 162.859 48.1101C162.692 47.7759 162.51 47.4315 162.353 47.0972C161.831 45.9932 161.335 44.7019 160.834 43.5523C160.14 41.9621 159.416 40.1188 158.809 38.4881C158.363 37.2929 157.584 35.804 157.29 34.9431C157.103 34.3962 157.088 33.3732 156.784 32.411C156.465 31.4083 156.05 30.3549 155.771 29.3725C155.321 27.7874 154.577 25.7262 154.253 24.3083C154.065 23.503 153.939 22.2775 153.746 21.2697C152.769 16.1852 152.344 11.2426 152.228 6.07706C149.701 5.72257 149.276 2.84609 152.228 3.03853V0H94.0085C54.5056 26.3491 28.2514 69.7242 25.1582 117.49V117.996C17.0683 118.012 8.94798 117.976 0.85806 117.996C-2.59965 148.893 4.60939 179.719 18.5769 207.127H104.64C101.987 204.26 98.4332 202.361 95.5222 199.794C78.6995 184.961 67.6783 163.777 65.6584 141.297C78.0565 141.17 90.485 141.449 102.888 141.312C104.21 141.302 105.45 140.775 106.893 140.765C142.583 140.421 178.305 141.069 213.995 140.785L213.99 207.127H227.659V106.855C227.345 106.916 226.9 106.774 226.647 106.855ZM140.077 117.49C119.838 117.49 99.5672 117.48 79.3272 117.49C80.4511 100.449 87.7867 83.119 97.851 69.4254C106.113 58.1828 115.464 50.784 128.251 45.1475C130.519 44.1448 137.774 41.1113 139.824 41.0101C141.439 40.929 140.098 44.16 140.057 45.3045C139.192 69.1722 140.746 93.5767 140.077 117.49ZM152.228 129.644C152.217 125.77 152.243 121.876 152.228 117.996V117.49C152.172 102.14 152.263 86.7602 152.233 71.4055C165.127 86.6032 178.102 101.993 190.703 117.49C190.855 117.677 191.062 117.819 191.209 117.996C193.604 120.929 196.322 124.094 198.499 127.163C199.031 127.917 199.866 128.682 199.815 129.644H152.228Z" fill="url(#paint0_linear_1253_25833)"/>
<defs>
<linearGradient id="paint0_linear_1253_25833" x1="54.1294" y1="-43.3634" x2="113.83" y2="207.127" gradientUnits="userSpaceOnUse">
<stop stop-color="white" stop-opacity="0.28"/>
<stop offset="1" stop-color="#0ABBE9"/>
</linearGradient>
</defs>
</svg>
